{"title":"Contraband 2012 1080p BDRip(AC3-5.1ch)[Dual-Audio][Eng-Hindi]~Bo","uid":9965209,"size":2994878880,"categoryP":"video","categoryS":"hd___movies","magnet":"?xt=urn:btih:06ae15bb424a1b09641d8f4970ba9fd7e57fb17e&amp;dn=Contraband+2012+1080p+BDRip%28AC3-5.1ch%29%5BDual-Audio%5D%5BEng-Hindi%5D%7EBo&amp;tr=udp%3A%2F%2Ftracker.openbittorrent.com%3A80&amp;tr=udp%3A%2F%2Fopen.demonii.com%3A1337&amp;tr=udp%3A%2F%2Ftracker.coppersurfer.tk%3A6969&amp;tr=udp%3A%2F%2Fexodus.desync.com%3A6969","seeders":1,"leechers":4,"uploader":"boniin","files":14,"time":1397559902,"description":"                            HD Desi Rockers Releases\n\n\n\n\n\nGeneral\nUnique ID                                : 251329730531839423966497728053352837837 (0xBD14586BC7E251138A64D487E38FB2CD)\nComplete name                            : A:M.Inam UllahTorrentsContraband.2012.BluRay.1080p.DTS.x264-CHDContraband.2012.BluRay.1080p.DTS.x264-Contraband.2012.BluRay.1080p.DTS.x264- (1).mkv\nFormat                                   : Matroska\nFormat version                           : Version 4 / Version 2\nFile size                                : 2.76 GiB\nDuration                                 : 1h 49mn\nOverall bit rate mode                    : Variable\nOverall bit rate                         : 3 607 Kbps\nMovie name                               : Ripper~Boniin\nEncoded date                             : UTC 2014-04-13 08:50:04\nWriting application                      : mkvmerge v6.8.0 ('Theme for Great Cities') 32bit built on Mar  2 2014 21:27:07\nWriting library                          : libebml v1.3.0 + libmatroska v1.4.1\nAttachment                               : Yes\n\nVideo\nID                                       : 1\nFormat                                   : AVC\nFormat/Info                              : Advanced Video Codec\nFormat profile                           : &lt;a class=&quot;__cf_email__&quot; href=&quot;/cdn-cgi/l/email-protection&quot; data-cfemail=&quot;fcb4959b94bcb0c8d2cd&quot;&gt;[email&amp;#160;protected]&lt;/a&gt;&lt;script cf-hash='f9e31' type=&quot;text/javascript&quot;&gt;\n/* &lt;![CDATA[ */!function(){try{var t=&quot;currentScript&quot;in document?document.currentScript:function(){for(var t=document.getElementsByTagName(&quot;script&quot;),e=t.length;e--;)if(t[e].getAttribute(&quot;cf-hash&quot;))return t[e]}();if(t&amp;&amp;t.previousSibling){var e,r,n,i,c=t.previousSibling,a=c.getAttribute(&quot;data-cfemail&quot;);if(a){for(e=&quot;&quot;,r=parseInt(a.substr(0,2),16),n=2;a.length-n;n+=2)i=parseInt(a.substr(n,2),16)^r,e+=String.fromCharCode(i);e=document.createTextNode(e),c.parentNode.replaceChild(e,c)}}}catch(u){}}();/* ]]&gt; */&lt;/script&gt;\nFormat settings, CABAC                   : Yes\nFormat settings, ReFrames                : 4 frames\nCodec ID                                 : V_MPEG4/ISO/AVC\nDuration                                 : 1h 49mn\nBit rate mode                            : Variable\nBit rate                                 : 2 800 Kbps\nMaximum bit rate                         : 40.0 Mbps\nWidth                                    : 1 920 pixels\nHeight                                   : 816 pixels\nDisplay aspect ratio                     : 2.35:1\nFrame rate mode                          : Constant\nFrame rate                               : 23.976 fps\nColor space                              : YUV\nChroma subsampling                       : 4:2:0\nBit depth                                : 8 bits\nScan type                                : Progressive\nBits/(Pixel*Frame)                       : 0.075\nStream size                              : 2.07 GiB (75%)\nWriting library                          : x264 core 138 r2358 9e941d1\nEncoding settings                        : cabac=1 / ref=5 / deblock=1:0:0 / analyse=0x3:0x133 / me=umh / subme=10 / psy=1 / psy_rd=1.00:0.00 / mixed_ref=1 / me_range=24 / chroma_me=1 / trellis=2 / 8x8dct=1 / cqm=0 / deadzone=21,11 / fast_pskip=1 / chroma_qp_offset=-2 / threads=24 / lookahead_threads=2 / sliced_threads=0 / slices=4 / nr=0 / decimate=1 / interlaced=0 / bluray_compat=1 / constrained_intra=0 / bframes=3 / b_pyramid=1 / b_adapt=2 / b_bias=0 / direct=3 / weightb=1 / open_gop=1 / weightp=1 / keyint=24 / keyint_min=1 / scenecut=40 / intra_refresh=0 / rc_lookahead=24 / rc=2pass / mbtree=1 / bitrate=2800 / ratetol=1.0 / qcomp=0.60 / qpmin=0 / qpmax=69 / qpstep=4 / cplxblur=20.0 / qblur=0.5 / vbv_maxrate=40000 / vbv_bufsize=30000 / nal_hrd=vbr / ip_ratio=1.40 / aq=1:1.00\nLanguage                                 : English\nDefault                                  : Yes\nForced                                   : No\n\nAudio #1\nID                                       : 2\nFormat                                   : AC-3\nFormat/Info                              : Audio Coding 3\nMode extension                           : CM (complete main)\nFormat settings, Endianness              : Big\nCodec ID                                 : A_AC3\nDuration                                 : 1h 49mn\nBit rate mode                            : Constant\nBit rate                                 : 384 Kbps\nChannel(s)                               : 6 channels\nChannel positions                        : Front: L C R, Side: L R, LFE\nSampling rate                            : 48.0 KHz\nBit depth                                : 16 bits\nCompression mode                         : Lossy\nDelay relative to video                  : 16ms\nStream size                              : 301 MiB (11%)\nTitle                                    : Ripper~Boniin\nLanguage                                 : Hindi\nDefault                                  : No\nForced                                   : No\n\nAudio #2\nID                                       : 3\nFormat                                   : AC-3\nFormat/Info                              : Audio Coding 3\nMode extension                           : CM (complete main)\nFormat settings, Endianness              : Big\nCodec ID                                 : A_AC3\nDuration                                 : 1h 49mn\nBit rate mode                            : Constant\nBit rate                                 : 448 Kbps\nChannel(s)                               : 6 channels\nChannel positions                        : Front: L C R, Side: L R, LFE\nSampling rate                            : 48.0 KHz\nBit depth                                : 16 bits\nCompression mode                         : Lossy\nStream size                              : 351 MiB (12%)\nTitle                                    : Ripper~Boniin\nLanguage                                 : English\nDefault                                  : No\nForced                                   : No\n\nText #1\nID                                       : 4\nFormat                                   : VobSub\nMuxing mode                              : zlib\nCodec ID                                 : S_VOBSUB\nCodec ID/Info                            : The same subtitle format used on DVDs\nTitle                                    : Ripper~Boniin\nLanguage                                 : English\nDefault                                  : Yes\nForced                                   : No\n\nText #2\nID                                       : 5\nFormat                                   : VobSub\nMuxing mode                              : zlib\nCodec ID                                 : S_VOBSUB\nCodec ID/Info                            : The same subtitle format used on DVDs\nTitle                                    : Ripper~Boniin\nLanguage                                 : Hindi\nDefault                                  : No\nForced                                   : No\n\nText #3\nID                                       : 6\nFormat                                   : VobSub\nMuxing mode                              : zlib\nCodec ID                                 : S_VOBSUB\nCodec ID/Info                            : The same subtitle format used on DVDs\nTitle                                    : Ripper~Boniin\nLanguage                                 : English\nDefault                                  : No\nForced                                   : No\n\nText #4\nID                                       : 7\nFormat                                   : VobSub\nMuxing mode                              : zlib\nCodec ID                                 : S_VOBSUB\nCodec ID/Info                            : The same subtitle format used on DVDs\nTitle                                    : Ripper~Boniin-500\nLanguage                                 : English\nDefault                                  : No\nForced                                   : No\n\nText #5\nID                                       : 8\nFormat                                   : VobSub\nMuxing mode                              : zlib\nCodec ID                                 : S_VOBSUB\nCodec ID/Info                            : The same subtitle format used on DVDs\nTitle                                    : Ripper~Boniin\nLanguage                                 : Hindi\nDefault                                  : No\nForced                                   : No\n\nMenu\n00:00:00.000                             : en:Chapter 1\n00:08:26.255                             : en:Chapter 2\n00:14:46.260                             : en:Chapter 3\n00:19:12.860                             : en:Chapter 4\n00:24:52.365                             : en:Chapter 5\n00:29:12.625                             : en:Chapter 6\n00:34:39.744                             : en:Chapter 7\n00:38:56.375                             : en:Chapter 8\n00:45:36.942                             : en:Chapter 9\n00:52:17.759                             : en:Chapter 10\n00:59:56.092                             : en:Chapter 11\n01:05:31.344                             : en:Chapter 12\n01:10:03.991                             : en:Chapter 13\n01:16:15.112                             : en:Chapter 14\n01:21:17.372                             : en:Chapter 15\n01:25:34.045                             : en:Chapter 16\n01:30:15.910                             : en:Chapter 17\n01:35:26.887                             : en:Chapter 18\n01:39:01.143                             : en:Chapter 19\n01:44:32.099                             : en:Chapter 20\n\n\nscreeshots:\n &lt;a href=&quot;\nhttp://someimage.com/8MmErsU&quot; rel=&quot;nofollow&quot; target=&quot;_NEW&quot;&gt;\nhttp://someimage.com/8MmErsU&lt;/a&gt; &lt;a href=&quot;\nhttp://someimage.com/Q8NNLND&quot; rel=&quot;nofollow&quot; target=&quot;_NEW&quot;&gt;\nhttp://someimage.com/Q8NNLND&lt;/a&gt; &lt;a href=&quot;\nhttp://someimage.com/xAtXXMB&quot; rel=&quot;nofollow&quot; target=&quot;_NEW&quot;&gt;\nhttp://someimage.com/xAtXXMB&lt;/a&gt; &lt;a href=&quot;\nhttp://someimage.com/04ntFwW&quot; rel=&quot;nofollow&quot; target=&quot;_NEW&quot;&gt;\nhttp://someimage.com/04ntFwW&lt;/a&gt; &lt;a href=&quot;\nhttp://someimage.com/CrC775g&quot; rel=&quot;nofollow&quot; target=&quot;_NEW&quot;&gt;\nhttp://someimage.com/CrC775g&lt;/a&gt;\n\n\n\n","torrent":{"xt":"urn:btih:06ae15bb424a1b09641d8f4970ba9fd7e57fb17e","amp;dn":"Contraband+2012+1080p+BDRip%28AC3-5.1ch%29%5BDual-Audio%5D%5BEng-Hindi%5D%7EBo","amp;tr":["udp%3A%2F%2Ftracker.openbittorrent.com%3A80","udp%3A%2F%2Fopen.demonii.com%3A1337","udp%3A%2F%2Ftracker.coppersurfer.tk%3A6969","udp%3A%2F%2Fexodus.desync.com%3A6969"],"infoHash":"06ae15bb424a1b09641d8f4970ba9fd7e57fb17e","infoHashBuffer":{"type":"Buffer","data":[6,174,21,187,66,74,27,9,100,29,143,73,112,186,159,215,229,127,177,126]},"announce":[],"urlList":[]}}